# xmcd
#
# Track frame offsets:
#	150
#	20187
#	34622
#	42655
#	79475
#
# Disc length: 1282 seconds
#
# Revision: 1
# Processed by: cddbd v1.5.2PL0 Copyright (c) Steve Scherf et al.
# Submitted via: audiograbber 1.83.01
#
DISCID=40050005
DTITLE=Vanilla Ice - Road To My Riches
DYEAR=1991
DGENRE=Rap
TTITLE0=Road To My Riches
TTITLE1=Hooked
TTITLE2=Move
TTITLE3=Ice Ice Baby
TTITLE4=Satisfaction
EXTD=
EXTT0=
EXTT1=
EXTT2=
EXTT3=
EXTT4=
PLAYORDER=
